<svg width="27" height="27" viewBox="0 0 27 27" fill="none" xmlns="http://www.w3.org/2000/svg">
<path fill-rule="evenodd" clip-rule="evenodd" d="M13.5 25.3125C13.2762 25.3125 13.0616 25.2236 12.9034 25.0654C12.7451 24.9071 12.6563 24.6925 12.6563 24.4688L12.6563 4.56806L7.34738 9.87862C7.18894 10.0371 6.97406 10.1261 6.75 10.1261C6.52594 10.1261 6.31106 10.0371 6.15263 9.87862C5.99419 9.72019 5.90519 9.50531 5.90519 9.28125C5.90519 9.05719 5.99419 8.84231 6.15263 8.68387L12.9026 1.93387C12.981 1.8553 13.0741 1.79296 13.1766 1.75042C13.2791 1.70789 13.389 1.68599 13.5 1.68599C13.611 1.68599 13.7209 1.70789 13.8234 1.75042C13.9259 1.79296 14.019 1.8553 14.0974 1.93387L20.8474 8.68387C21.0058 8.84231 21.0948 9.05719 21.0948 9.28125C21.0948 9.50531 21.0058 9.72019 20.8474 9.87862C20.6889 10.0371 20.4741 10.1261 20.25 10.1261C20.0259 10.1261 19.8111 10.0371 19.6526 9.87862L14.3438 4.56806L14.3438 24.4688C14.3438 24.6925 14.2549 24.9071 14.0966 25.0654C13.9384 25.2236 13.7238 25.3125 13.5 25.3125Z" fill="#AD8466"/>
</svg>
