<svg width="39" height="39" viewBox="0 0 39 39" fill="none" xmlns="http://www.w3.org/2000/svg">
<path d="M7.54649 7.79999H33.384C35.8215 7.79999 37.05 8.95049 37.05 11.2905V27.7095C37.05 30.03 35.8215 31.2 33.384 31.2H7.54649C5.10899 31.2 3.88049 30.03 3.88049 27.7095V11.2905C3.88049 8.95049 5.10899 7.79999 7.54649 7.79999ZM20.4555 24.57L33.5985 13.7865C34.0665 13.3965 34.437 12.4995 33.852 11.7C33.2865 10.9005 32.253 10.881 31.5705 11.3685L20.4555 18.8955L9.35999 11.3685C8.67749 10.881 7.64399 10.9005 7.07849 11.7C6.49349 12.4995 6.86399 13.3965 7.33199 13.7865L20.4555 24.57Z" fill="white"/>
</svg>
