<svg width="58" height="58" viewBox="0 0 58 58" fill="none" xmlns="http://www.w3.org/2000/svg">
<rect width="58" height="58" fill="#AD8466"/>
<path d="M18.125 45.75C17.2313 45.75 16.4659 45.432 15.8289 44.7961C15.193 44.1591 14.875 43.3937 14.875 42.5V19.75C14.875 18.8562 15.193 18.0914 15.8289 17.4555C16.4659 16.8185 17.2313 16.5 18.125 16.5H19.75V14.875C19.75 14.4146 19.9055 14.0284 20.2164 13.7164C20.5284 13.4055 20.9146 13.25 21.375 13.25C21.8354 13.25 22.2216 13.4055 22.5336 13.7164C22.8445 14.0284 23 14.4146 23 14.875V16.5H36V14.875C36 14.4146 36.156 14.0284 36.468 13.7164C36.7789 13.4055 37.1646 13.25 37.625 13.25C38.0854 13.25 38.4711 13.4055 38.782 13.7164C39.094 14.0284 39.25 14.4146 39.25 14.875V16.5H40.875C41.7687 16.5 42.5341 16.8185 43.1711 17.4555C43.807 18.0914 44.125 18.8562 44.125 19.75V42.5C44.125 43.3937 43.807 44.1591 43.1711 44.7961C42.5341 45.432 41.7687 45.75 40.875 45.75H18.125ZM18.125 42.5H40.875V26.25H18.125V42.5ZM28.8094 39.4125L27.4688 36.4062L24.4625 35.0656C24.1646 34.9302 24.0156 34.7 24.0156 34.375C24.0156 34.05 24.1646 33.8198 24.4625 33.6844L27.4688 32.3438L28.8094 29.3375C28.9448 29.0396 29.175 28.8906 29.5 28.8906C29.825 28.8906 30.0552 29.0396 30.1906 29.3375L31.5312 32.3438L34.5375 33.6844C34.8354 33.8198 34.9844 34.05 34.9844 34.375C34.9844 34.7 34.8354 34.9302 34.5375 35.0656L31.5312 36.4062L30.1906 39.4125C30.0552 39.7104 29.825 39.8594 29.5 39.8594C29.175 39.8594 28.9448 39.7104 28.8094 39.4125Z" fill="white"/>
</svg>
