<svg width="328" height="383" viewBox="0 0 328 383" fill="none" xmlns="http://www.w3.org/2000/svg">
<rect x="-2" y="265.765" width="330" height="88.2549" fill="#DDFFA1"/>
<path fill-rule="evenodd" clip-rule="evenodd" d="M-1.75041 64.7575C-1.82034 45.0186 -1.27743 23.7686 -0.43693 1L0.562415 1.03547C-1.43659 55.1872 -1.7473 100.663 3.84536 137.636C9.43736 174.605 20.9227 203.01 42.4637 223.075C64.0043 243.139 95.672 254.931 141.774 258.52C187.797 262.103 248.152 257.508 327.063 244.854V244.209H328.063V245.19L328.144 245.674L328.063 245.687V355.018L-2 355.018L-1.93725 64.7574L-1.75041 64.7575ZM-0.944385 97.6682L-0.999989 354.037L327.063 354.037V245.847C248.203 258.486 187.806 263.087 141.695 259.497C95.4679 255.898 63.5438 244.063 41.775 223.786C20.0064 203.509 8.46457 174.857 2.85618 137.78C0.97789 125.363 -0.235852 111.994 -0.944385 97.6682Z" fill="#DDFFA1" stroke="#DDFFA1"/>
<path d="M-2 105.925C20.4635 254.26 82 284.396 328 245.662V348.136H-2V105.925Z" fill="#DDFFA1"/>
<rect y="355" width="328" height="28" fill="#DDFFA1"/>
</svg>
