<svg width="58" height="58" viewBox="0 0 58 58" fill="none" xmlns="http://www.w3.org/2000/svg">
<rect width="58" height="58" fill="#DDFFA1"/>
<g clip-path="url(#clip0_155_6)">
<path d="M12.9375 13.875V13.375H12.4375C11.3654 13.375 10.5 12.5096 10.5 11.4375C10.5 10.3654 11.3654 9.5 12.4375 9.5H46.5625C47.6346 9.5 48.5 10.3654 48.5 11.4375C48.5 12.5096 47.6346 13.375 46.5625 13.375H46.0625V13.875V43.125V43.625H46.5625C47.6346 43.625 48.5 44.4904 48.5 45.5625C48.5 46.6346 47.6346 47.5 46.5625 47.5H33.6562V43.125V42.625H33.1562H25.8438H25.3438V43.125V47.5H12.4375C11.3654 47.5 10.5 46.6346 10.5 45.5625C10.5 44.4904 11.3654 43.625 12.4375 43.625H12.9375V43.125V13.875ZM20.9688 15.8125H18.5312C17.5848 15.8125 16.8125 16.5848 16.8125 17.5312V19.9688C16.8125 20.9152 17.5848 21.6875 18.5312 21.6875H20.9688C21.9152 21.6875 22.6875 20.9152 22.6875 19.9688V17.5312C22.6875 16.5848 21.9152 15.8125 20.9688 15.8125ZM28.2812 15.8125C27.3348 15.8125 26.5625 16.5848 26.5625 17.5312V19.9688C26.5625 20.9152 27.3348 21.6875 28.2812 21.6875H30.7188C31.6652 21.6875 32.4375 20.9152 32.4375 19.9688V17.5312C32.4375 16.5848 31.6652 15.8125 30.7188 15.8125H28.2812ZM40.4688 15.8125H38.0312C37.0848 15.8125 36.3125 16.5848 36.3125 17.5312V19.9688C36.3125 20.9152 37.0848 21.6875 38.0312 21.6875H40.4688C41.4152 21.6875 42.1875 20.9152 42.1875 19.9688V17.5312C42.1875 16.5848 41.4152 15.8125 40.4688 15.8125ZM18.5312 23.125C17.5848 23.125 16.8125 23.8973 16.8125 24.8438V27.2812C16.8125 28.2277 17.5848 29 18.5312 29H20.9688C21.9152 29 22.6875 28.2277 22.6875 27.2812V24.8438C22.6875 23.8973 21.9152 23.125 20.9688 23.125H18.5312ZM30.7188 23.125H28.2812C27.3348 23.125 26.5625 23.8973 26.5625 24.8438V27.2812C26.5625 28.2277 27.3348 29 28.2812 29H30.7188C31.6652 29 32.4375 28.2277 32.4375 27.2812V24.8438C32.4375 23.8973 31.6652 23.125 30.7188 23.125ZM38.0312 23.125C37.0848 23.125 36.3125 23.8973 36.3125 24.8438V27.2812C36.3125 28.2277 37.0848 29 38.0312 29H40.4688C41.4152 29 42.1875 28.2277 42.1875 27.2812V24.8438C42.1875 23.8973 41.4152 23.125 40.4688 23.125H38.0312ZM34.9844 38.75C36.22 38.75 37.4231 37.6916 37.0684 36.3132C36.2131 32.9353 33.1456 30.4375 29.5 30.4375C25.8532 30.4375 22.7942 32.9365 21.9316 36.3132C21.5773 37.6983 22.7712 38.75 24.0156 38.75H34.9844Z" fill="white" stroke="black"/>
</g>
<defs>
<clipPath id="clip0_155_6">
<rect width="39" height="39" fill="white" transform="translate(10 9)"/>
</clipPath>
</defs>
</svg>
