<svg width="39" height="39" viewBox="0 0 39 39" fill="none" xmlns="http://www.w3.org/2000/svg">
<path d="M19.5001 14.4232C16.7046 14.4232 14.4232 16.7045 14.4232 19.5C14.4232 22.2955 16.7046 24.5769 19.5001 24.5769C22.2956 24.5769 24.5769 22.2955 24.5769 19.5C24.5769 16.7045 22.2956 14.4232 19.5001 14.4232ZM34.7268 19.5C34.7268 17.3977 34.7459 15.3144 34.6278 13.2158C34.5097 10.7783 33.9537 8.61506 32.1713 6.83264C30.385 5.04641 28.2255 4.49416 25.788 4.3761C23.6857 4.25803 21.6024 4.27707 19.5039 4.27707C17.4015 4.27707 15.3182 4.25803 13.2197 4.3761C10.7822 4.49416 8.61891 5.05022 6.83648 6.83264C5.05025 8.61887 4.49801 10.7783 4.37994 13.2158C4.26187 15.3182 4.28092 17.4015 4.28092 19.5C4.28092 21.5986 4.26187 23.6857 4.37994 25.7842C4.49801 28.2217 5.05406 30.385 6.83648 32.1674C8.62271 33.9536 10.7822 34.5059 13.2197 34.6239C15.322 34.742 17.4053 34.723 19.5039 34.723C21.6062 34.723 23.6895 34.742 25.788 34.6239C28.2255 34.5059 30.3888 33.9498 32.1713 32.1674C33.9575 30.3812 34.5097 28.2217 34.6278 25.7842C34.7497 23.6857 34.7268 21.6024 34.7268 19.5V19.5ZM19.5001 27.3114C15.1773 27.3114 11.6886 23.8228 11.6886 19.5C11.6886 15.1773 15.1773 11.6886 19.5001 11.6886C23.8228 11.6886 27.3115 15.1773 27.3115 19.5C27.3115 23.8228 23.8228 27.3114 19.5001 27.3114ZM27.6314 13.193C26.6221 13.193 25.8071 12.378 25.8071 11.3687C25.8071 10.3594 26.6221 9.54436 27.6314 9.54436C28.6407 9.54436 29.4557 10.3594 29.4557 11.3687C29.456 11.6083 29.409 11.8457 29.3175 12.0672C29.2259 12.2886 29.0915 12.4899 28.9221 12.6593C28.7526 12.8288 28.5514 12.9632 28.3299 13.0547C28.1084 13.1463 27.8711 13.1933 27.6314 13.193V13.193Z" fill="white"/>
</svg>
