<svg width="35" height="39" viewBox="0 0 35 39" fill="none" xmlns="http://www.w3.org/2000/svg">
<path d="M32.0834 9.74187C32.0834 8.84812 31.433 8.125 30.6323 8.125H18.9511C18.5662 8.125 18.1972 8.29535 17.925 8.59857C17.6529 8.90179 17.5 9.31305 17.5 9.74187C17.5 10.1707 17.6529 10.582 17.925 10.8852C18.1972 11.1884 18.5662 11.3587 18.9511 11.3587H30.6323C31.0172 11.3587 31.3863 11.1884 31.6584 10.8852C31.9305 10.582 32.0834 10.1707 32.0834 9.74187ZM32.0834 19.5C32.0834 18.6062 31.433 17.8831 30.6323 17.8831H4.36775C3.98291 17.8831 3.61383 18.0535 3.34171 18.3567C3.06959 18.6599 2.91671 19.0712 2.91671 19.5C2.91671 19.9288 3.06959 20.3401 3.34171 20.6433C3.61383 20.9465 3.98291 21.1169 4.36775 21.1169H30.6323C31.0172 21.1169 31.3863 20.9465 31.6584 20.6433C31.9305 20.3401 32.0834 19.9288 32.0834 19.5ZM30.6323 27.6413C31.0172 27.6413 31.3863 27.8116 31.6584 28.1148C31.9305 28.418 32.0834 28.8293 32.0834 29.2581C32.0834 29.6869 31.9305 30.0982 31.6584 30.4014C31.3863 30.7046 31.0172 30.875 30.6323 30.875H13.1178C12.7329 30.875 12.3638 30.7046 12.0917 30.4014C11.8196 30.0982 11.6667 29.6869 11.6667 29.2581C11.6667 28.8293 11.8196 28.418 12.0917 28.1148C12.3638 27.8116 12.7329 27.6413 13.1178 27.6413H30.6323Z" fill="#AD8466"/>
</svg>
