<svg width="64" height="64" viewBox="0 0 64 64" fill="none" xmlns="http://www.w3.org/2000/svg">
<path d="M32 8C33.0609 8 34.0783 8.42143 34.8284 9.17157C35.5786 9.92172 36 10.9391 36 12C36 13.0609 35.5786 14.0783 34.8284 14.8284C34.0783 15.5786 33.0609 16 32 16C30.9391 16 29.9217 15.5786 29.1716 14.8284C28.4214 14.0783 28 13.0609 28 12C28 10.9391 28.4214 9.92172 29.1716 9.17157C29.9217 8.42143 30.9391 8 32 8ZM32 4C29.8783 4 27.8434 4.84285 26.3431 6.34315C24.8429 7.84344 24 9.87827 24 12C24 14.1217 24.8429 16.1566 26.3431 17.6569C27.8434 19.1571 29.8783 20 32 20C34.1217 20 36.1566 19.1571 37.6569 17.6569C39.1571 16.1566 40 14.1217 40 12C40 9.87827 39.1571 7.84344 37.6569 6.34315C36.1566 4.84285 34.1217 4 32 4ZM36.92 21.96H27.08C25.2023 21.96 23.4014 22.7059 22.0737 24.0337C20.7459 25.3614 20 27.1623 20 29.04V39.6C19.9563 40.7115 20.3511 41.7957 21.0994 42.6187C21.8476 43.4418 22.8894 43.9379 24 44V53.32C24 54.593 24.5057 55.8139 25.4059 56.7141C26.3061 57.6143 27.527 58.12 28.8 58.12H35.2C35.844 58.1204 36.4816 57.9911 37.0746 57.7399C37.6676 57.4888 38.2041 57.1208 38.652 56.658C39.0998 56.1952 39.45 55.647 39.6816 55.0461C39.9132 54.4451 40.0215 53.8037 40 53.16V44C41.1106 43.9379 42.1524 43.4418 42.9006 42.6187C43.6489 41.7957 44.0437 40.7115 44 39.6V29.04C44 27.1623 43.2541 25.3614 41.9263 24.0337C40.5986 22.7059 38.7977 21.96 36.92 21.96ZM24 40V29.04C23.9946 28.634 24.0706 28.2311 24.2235 27.855C24.3764 27.4789 24.603 27.1372 24.8901 26.8501C25.1772 26.563 25.5189 26.3364 25.895 26.1835C26.2711 26.0306 26.674 25.9546 27.08 25.96H36.92C37.326 25.9546 37.7289 26.0306 38.105 26.1835C38.4811 26.3364 38.8228 26.563 39.1099 26.8501C39.397 27.1372 39.6236 27.4789 39.7765 27.855C39.9294 28.2311 40.0054 28.634 40 29.04V40H36V53.24C36 53.4522 35.9157 53.6557 35.7657 53.8057C35.6157 53.9557 35.4122 54.04 35.2 54.04H28.8C28.5878 54.04 28.3843 53.9557 28.2343 53.8057C28.0843 53.6557 28 53.4522 28 53.24V40H24Z" fill="black"/>
</svg>
