<svg width="58" height="58" viewBox="0 0 58 58" fill="none" xmlns="http://www.w3.org/2000/svg">
<rect width="58" height="58" fill="#D5FE86"/>
<mask id="mask0_154_5" style="mask-type:alpha" maskUnits="userSpaceOnUse" x="12" y="10" width="32" height="37">
<path d="M22 39.2583C22 40.8273 22.6963 44.75 31.75 44.75C40.8037 44.75 41.5 40.8273 41.5 39.2583V22H22V39.2583Z" fill="#555555" stroke="black" stroke-width="3.25" stroke-linejoin="round"/>
<path d="M29.3125 27.6875V39.0625M34.1875 27.6875V39.0625" stroke="black" stroke-width="3.25" stroke-linecap="round" stroke-linejoin="round"/>
<path d="M21.9984 22C21.9984 22 20.3742 18.3438 22.8109 16.3125C25.2492 14.2812 27.6875 15.5 27.6875 15.5C27.6875 15.5 28.5 12.25 31.75 12.25C35 12.25 35.8125 15.5 35.8125 15.5C35.8125 15.5 38.6562 14.2812 40.6875 16.3125C42.7188 18.3438 41.4984 22 41.4984 22M22 24.4375H13.875C13.875 24.4375 14.6875 32.5625 15.5 35C16.3109 37.4375 22 36.625 22 36.625" stroke="black" stroke-width="3.25" stroke-linejoin="round"/>
</mask>
<g mask="url(#mask0_154_5)">
<path d="M9 9H48V48H9V9Z" fill="white"/>
</g>
</svg>
