<svg width="35" height="35" viewBox="0 0 35 35" fill="none" xmlns="http://www.w3.org/2000/svg">
<rect width="35" height="35" fill="#8FB44D"/>
<g clip-path="url(#clip0_142_4)">
<path d="M22.3904 16.328H23.0739C23.5571 16.3294 24.0358 16.2348 24.4822 16.0499C24.9287 15.8649 25.334 15.5932 25.6747 15.2506L29.437 11.4584L28.4156 10.4288L24.5738 14.2706L23.7754 13.4722L27.6172 9.62989L26.56 8.60439L22.7324 12.4315L21.9363 11.6331L25.7781 7.7908L24.7484 6.7699L20.9563 10.5322C20.6136 10.873 20.3419 11.2783 20.1569 11.7249C19.972 12.1714 19.8775 12.6501 19.8788 13.1334V13.8165L17.8963 15.799L8.84428 6.7699C6.80892 9.29204 8.01092 13.9272 10.3023 16.2191L14.2324 20.1492C15.4528 21.3696 15.695 21.4785 17.0795 20.9214C17.3778 20.8014 17.4863 20.8147 17.7644 21.0924L18.362 21.6499C18.4966 21.7878 18.4999 21.8283 18.4999 22.0921V22.3468C18.4999 23.3157 19.1195 23.8728 19.5277 24.2884L24.2888 28.8335L27.5983 25.5239L20.4079 18.3105L22.3904 16.328Z" fill="white"/>
<path d="M17.0892 22.3335C15.7185 22.6144 14.8778 22.8731 13.2703 21.2657C13.2446 21.24 13.2179 21.2152 13.1922 21.1894L12.2959 20.2931L7.37338 25.1563L11.0506 28.8335L17.6697 22.2145L17.0892 22.3335Z" fill="white"/>
</g>
<defs>
<clipPath id="clip0_142_4">
<rect width="23.5345" height="23.5345" fill="white" transform="translate(6.63794 6.03442)"/>
</clipPath>
</defs>
</svg>
