<svg width="39" height="39" viewBox="0 0 39 39" fill="none" xmlns="http://www.w3.org/2000/svg">
<g clip-path="url(#clip0_181_6)">
<path d="M17.55 0C12.8955 0 8.43154 1.84901 5.14028 5.14028C1.84901 8.43154 0 12.8955 0 17.55C0 22.2046 1.84901 26.6685 5.14028 29.9597C8.43154 33.251 12.8955 35.1 17.55 35.1C22.2046 35.1 26.6685 33.251 29.9597 29.9597C33.251 26.6685 35.1 22.2046 35.1 17.55C35.1 12.8955 33.251 8.43154 29.9597 5.14028C26.6685 1.84901 22.2046 0 17.55 0V0ZM24.297 23.3025C24.297 26.169 22.737 29.7375 16.38 32.4675C16.965 24.336 11.466 25.272 10.14 22.7175C10.2608 21.6607 10.6456 20.6513 11.259 19.7823C11.8724 18.9133 12.6947 18.2127 13.65 17.745C10.6239 17.226 7.80181 15.8757 5.499 13.845C5.5965 14.7615 6.04305 15.6078 6.747 16.2045C5.22193 15.6296 3.90421 14.6108 2.964 13.2795C3.89371 10.211 5.75312 7.50677 8.28551 5.54024C10.8179 3.57372 13.8983 2.44188 17.1015 2.301C15.4635 4.992 14.1765 10.3545 17.1015 13.1625C14.0985 13.65 12.207 9.75 10.5495 11.2905C8.346 13.3575 11.193 16.185 17.2185 17.2965C23.634 18.447 24.3555 20.3775 24.297 23.3025V23.3025ZM26.91 15.5025C26.286 13.338 28.119 11.154 30.2055 9.3795C31.5085 11.2578 32.338 13.4233 32.6233 15.6915C32.9085 17.9596 32.6409 20.2631 31.8435 22.4055C30.342 18.72 27.612 17.8815 26.91 15.444V15.5025V15.5025Z" fill="white"/>
</g>
<defs>
<clipPath id="clip0_181_6">
<rect width="39" height="39" fill="white"/>
</clipPath>
</defs>
</svg>
