<svg width="39" height="39" viewBox="0 0 39 39" fill="none" xmlns="http://www.w3.org/2000/svg">
<path d="M32.7601 11.115C28.0801 3.89997 18.5251 1.75497 11.1151 6.23997C3.90006 10.725 1.56006 20.475 6.24006 27.69L6.63006 28.275L5.07006 34.125L10.9201 32.565L11.5051 32.955C14.0401 34.32 16.7701 35.1 19.5001 35.1C22.4251 35.1 25.3501 34.32 27.8851 32.76C35.1001 28.08 37.2451 18.525 32.7601 11.115V11.115ZM28.6651 26.13C27.8851 27.3 26.9101 28.08 25.5451 28.275C24.7651 28.275 23.7901 28.665 19.8901 27.105C16.5751 25.545 13.8451 23.01 11.8951 20.085C10.7251 18.72 10.1401 16.965 9.94506 15.21C9.94506 13.65 10.5301 12.285 11.5051 11.31C11.8951 10.92 12.2851 10.725 12.6751 10.725H13.6501C14.0401 10.725 14.4301 10.725 14.6251 11.505C15.0151 12.48 15.9901 14.82 15.9901 15.015C16.1851 15.21 16.1851 15.6 15.9901 15.795C16.1851 16.185 15.9901 16.575 15.7951 16.77C15.6001 16.965 15.4051 17.355 15.2101 17.55C14.8201 17.745 14.6251 18.135 14.8201 18.525C15.6001 19.695 16.5751 20.865 17.5501 21.84C18.7201 22.815 19.8901 23.595 21.2551 24.18C21.6451 24.375 22.0351 24.375 22.2301 23.985C22.4251 23.595 23.4001 22.62 23.7901 22.23C24.1801 21.84 24.3751 21.84 24.7651 22.035L27.8851 23.595C28.2751 23.79 28.6651 23.985 28.8601 24.18C29.0551 24.765 29.0551 25.545 28.6651 26.13V26.13Z" fill="white"/>
</svg>
